<?xml version="1.0" encoding="UTF-8" standalone="no"?>
<svg
   xmlns:dc="http://purl.org/dc/elements/1.1/"
   xmlns:cc="http://creativecommons.org/ns#"
   xmlns:rdf="http://www.w3.org/1999/02/22-rdf-syntax-ns#"
   xmlns:svg="http://www.w3.org/2000/svg"
   xmlns="http://www.w3.org/2000/svg"
   xmlns:sodipodi="http://sodipodi.sourceforge.net/DTD/sodipodi-0.dtd"
   xmlns:inkscape="http://www.inkscape.org/namespaces/inkscape"
   width="312.44pt"
   height="85.35pt"
   viewBox="0 0 312.44 85.35"
   version="1.1"
   id="svg23"
   sodipodi:docname="apif.svg"
   inkscape:version="1.0.1 (3bc2e813f5, 2020-09-07)">
  <sodipodi:namedview
     pagecolor="#ffffff"
     bordercolor="#666666"
     borderopacity="1"
     objecttolerance="10"
     gridtolerance="10"
     guidetolerance="10"
     inkscape:pageopacity="0"
     inkscape:pageshadow="2"
     inkscape:window-width="1920"
     inkscape:window-height="1009"
     id="namedview13"
     showgrid="false"
     inkscape:zoom="3.7831263"
     inkscape:cx="327.61098"
     inkscape:cy="56.899999"
     inkscape:window-x="0"
     inkscape:window-y="0"
     inkscape:window-maximized="1"
     inkscape:current-layer="svg23" />
  <metadata
     id="metadata27">
    <rdf:RDF>
      <cc:Work
         rdf:about="">
        <dc:format>image/svg+xml</dc:format>
        <dc:type
           rdf:resource="http://purl.org/dc/dcmitype/StillImage" />
        <dc:title />
      </cc:Work>
    </rdf:RDF>
  </metadata>
  <defs
     id="defs8">
    <clipPath
       id="clip1">
      <path
         d="M 0 0 L 89 0 L 89 85.351563 L 0 85.351563 Z M 0 0 "
         id="path2" />
    </clipPath>
    <clipPath
       id="clip2">
      <path
         d="M 228 0 L 312.441406 0 L 312.441406 72 L 228 72 Z M 228 0 "
         id="path5" />
    </clipPath>
  </defs>
  <g
     id="g842"
     transform="matrix(0.97399771,0,0,1.0073123,1.0621995e-6,8.2835123e-4)">
    <path
       style="clip-rule:nonzero;fill:#0075a8;fill-opacity:1;fill-rule:nonzero;stroke:none"
       d="m 45.582031,80.316406 c -0.160156,0.382813 -0.875,0.40625 -1.089843,0.40625 H 4.710938 l 34.125,-74.886718 C 39.183594,5.121094 39.574219,4.878906 40.375,4.878906 h 17.453125 c 0.355469,0 0.835938,0.207032 1.042969,0.644532 l 9.375,21.511718 0.191406,0.441407 c 0.128906,0.304687 0.183594,0.5 0.183594,0.699218 0,0.214844 -0.07422,0.472657 -0.21875,0.796875 L 68.34375,29.09375 C 67.460938,31.109375 52.207031,65.421875 47.195313,76.699219 Z M 84.40625,63.894531 c 0,0.710938 -0.167969,1.28125 -0.519531,1.765625 -0.472656,0.695313 -1.289063,1.140625 -2.074219,1.140625 l -25.253906,0.01172 14.707031,-33.09375 7.058594,15.625 c 3.527344,7.8125 5.695312,12.609375 5.71875,12.65625 0.242187,0.660156 0.363281,1.300781 0.363281,1.894531 M 72.367188,25.132813 62.972656,3.578125 C 61.964844,1.4375 59.898438,-0.00390625 57.828125,-0.00390625 H 40.375 c -2.441406,0 -4.433594,1.36328125 -5.605469,3.84765625 L 0.449219,79.136719 c -0.65625,1.597656 -0.589844,3.148437 0.175781,4.359375 0.738281,1.179687 2.042969,1.855469 3.585938,1.855469 h 40.28125 c 2.394531,0 4.351562,-1.171875 5.230468,-3.136719 L 54.5,71.445313 81.605469,71.414063 c 0.101562,0.0039 0.210937,0.0078 0.316406,0.0078 2.164063,0 4.332031,-1.179687 5.652344,-3.074219 1.523437,-2.160156 1.777344,-4.988281 0.703125,-7.996093"
       id="path10" />
    <path
       style="fill:#0075a8;fill-opacity:1;fill-rule:nonzero;stroke:none"
       d="m 226.69197,4.6734364 c 0.26953,0 0.5039,0.101562 0.70312,0.3125 0.38282,0.382812 0.60547,1.160156 0.60547,2.082031 l -0.0195,56.9609376 c 0,2.121093 -1.73828,2.289062 -1.75781,2.289062 h -32.9805 c -0.45703,0 -1.30078,-1 -1.30078,-2.417969 V 7.0171864 c -0.0312,-0.875 0.14844,-1.570313 0.48047,-1.941406 0.24218,-0.246094 0.60156,-0.363282 1.09375,-0.363282 z m -0.0352,-4.76562529 h -33.16793 c -1.64062,0.02343755 -3.18359,0.73437525 -4.34375,1.99218729 -1.11718,1.21875 -1.73047,2.96875 -1.73047,4.929688 V 63.899998 c 0,3.402344 2.33985,7.042969 5.82813,7.042969 h 32.98047 c 3.01953,0 6.27734,-2.644531 6.27734,-6.910156 l 0.0273,-56.9648436 c 0,-2.773437 -1.05079,-4.4375 -1.9375,-5.347656 -1.1211,-1.17187504 -2.51563,-1.81250029 -3.9336,-1.81250029"
       id="path14" />
    <path
       style="clip-rule:nonzero;fill:#0075a8;fill-opacity:1;fill-rule:nonzero;stroke:none"
       d="m 135.55065,64.003913 c 0,1.667969 -1.79687,2.257813 -2.25781,2.257813 h -32.01953 c -0.5,0 -0.84766,-0.128906 -1.125,-0.414063 -0.40235,-0.417968 -0.64844,-1.179687 -0.64844,-1.992187 V 7.390632 c 0,-1.042969 0.37109,-2.785156 2.88281,-2.785156 l 5.30469,0.00391 c 8.73828,0.00391 25.23437,0.00391 25.69922,0.011719 l 0.12109,0.00391 c 0.13281,0 0.26172,-0.00781 0.32422,-0.019531 h 1.73438 z M 174.38659,7.027351 c 0,0.617187 -0.15625,1.289062 -0.44922,1.949219 l -15.14063,34.320312 c -1.34765,2.996094 -4.41796,3.445313 -6.125,3.445313 l -12.60156,0.02734 0.0274,-42.164062 32.01562,-0.00391 c 0.70313,0.101562 1.47656,0.296875 1.91797,1.011718 0.23047,0.410157 0.35547,0.898438 0.35547,1.414063 m 3.5,-3.820313 c -1.1875,-1.988281 -3.2461,-3.199218 -5.66016,-3.32031225 h -69.84375 c -5.08594,0 -7.39844,3.88671925 -7.39844,7.50390625 v 56.464844 c 0,2.054687 0.71094,3.972656 1.95704,5.261719 1.125,1.167968 2.61718,1.785156 4.30859,1.785156 h 32.04297 c 2.83984,0 6.76953,-2.398438 6.76953,-6.898438 l 0.008,-12.613281 12.60938,-0.01563 c 2.23828,0 7.71093,-0.597656 10.22656,-6.144531 l 15.16406,-34.347656 c 1.17578,-2.683594 1.10938,-5.550782 -0.18359,-7.675782"
       id="path16" />
    <path
       style="fill:#0075a8;fill-opacity:1;fill-rule:nonzero;stroke:none"
       d="m 248.98736,7.2777053 c 0,-1.75 0.65235,-2.347656 2.57032,-2.347656 0.0586,0 4.75,0.019531 10.51562,0.039062 9.22266,0.035156 21.19141,0.078125 21.37109,0.078125 0.0547,0 0.10547,-0.00391 0.16407,-0.00391 h 1.42187 l -0.0117,59.5039057 c 0,2.089844 -1.73047,2.261719 -1.75,2.261719 h -32.99609 c -0.73047,0 -1.28516,-0.804688 -1.28516,-1.871094 z M 295.62799,47.16833 h -6.08594 l 0.008,-18.875 h 15.23438 c 0.24218,0 0.46875,0.140625 0.61718,0.363281 0.10157,0.160156 0.14063,0.316406 0.14063,0.527344 0,0.191406 -0.0352,0.394531 -0.10938,0.574219 l -0.0937,0.238281 c -1.2539,3.125 -4.39062,10.839844 -6.44531,15.042969 -1.04297,2.128906 -1.04297,2.128906 -3.26562,2.128906 M 316.17901,5.6995803 c 0,0.132812 -0.0156,0.238281 -0.043,0.304687 l -6.34375,14.0117187 c -1.57031,3.738281 -1.70703,3.738281 -5.27344,3.738281 h -14.96484 l 0.0195,-18.7109367 h 25.99609 c 0.17578,0 0.40625,0.035156 0.51563,0.261719 0.0664,0.097656 0.0937,0.222656 0.0937,0.394531 m -0.25,-5.39062526 h -64.37109 c -4.32032,0 -7.11329,2.73437526 -7.11329,6.96875026 V 64.937861 c 0,3.652344 2.5625,6.511719 5.82813,6.511719 h 32.99609 c 3.01563,0 6.26953,-2.640625 6.26953,-6.902344 l 0.0117,-12.84375 h 5.57813 c 1.97265,-0.03125 3.64453,0.08984 4.95312,-0.46875 0.83203,-0.367187 1.51563,-1.082031 2.10156,-2.226562 l 6.17579,-14.015625 c 0.0977,-0.265625 0.30468,-0.691407 0.57031,-1.238282 0.3125,-0.640625 0.70312,-1.433593 1.10547,-2.367187 0.3164,-0.71875 0.67968,-1.527344 1.0625,-2.371094 l 1.1914,-2.65625 c 0.41797,-0.933594 0.82813,-1.875 1.28125,-2.832031 0.19922,-0.425781 0.39453,-0.871094 0.58985,-1.316406 0.25,-0.574219 0.5,-1.144532 0.75781,-1.671875 l 5.70692,-12.7890627 c 0.71484,-1.65625 0.58984,-3.515625 -0.33594,-4.976562 -0.98047,-1.546875 -2.60937,-2.46484426 -4.35937,-2.46484426"
       id="path20" />
  </g>
</svg>
